<mxfile host="app.diagrams.net" modified="2024-03-24T23:50:17.101Z" agent="Mozilla/5.0 (X11; Linux x86_64) AppleWebKit/537.36 (KHTML, like Gecko) Chrome/123.0.0.0 Safari/537.36" etag="WBekkHJrICeD1GZNpsKm" version="24.0.7" type="device">
  <diagram name="Page-1" id="10a91c8b-09ff-31b1-d368-03940ed4cc9e">
    <mxGraphModel dx="-282" dy="925" grid="1" gridSize="10" guides="1" tooltips="1" connect="1" arrows="1" fold="1" page="1" pageScale="1" pageWidth="1100" pageHeight="850" background="none" math="0" shadow="0">
      <root>
        <mxCell id="0" />
        <mxCell id="1" parent="0" />
        <mxCell id="LJCdJQDtRav1pjc_Ptu5-148" value="" style="whiteSpace=wrap;html=1;rounded=1;shadow=1;labelBackgroundColor=none;strokeWidth=1;fontFamily=Verdana;fontSize=12;align=center;" vertex="1" parent="1">
          <mxGeometry x="2580" y="40" width="40" height="60" as="geometry" />
        </mxCell>
        <mxCell id="LJCdJQDtRav1pjc_Ptu5-149" value="" style="whiteSpace=wrap;html=1;rounded=1;shadow=1;labelBackgroundColor=none;strokeWidth=1;fontFamily=Verdana;fontSize=12;align=center;" vertex="1" parent="1">
          <mxGeometry x="2400" y="120" width="40" height="60" as="geometry" />
        </mxCell>
        <mxCell id="LJCdJQDtRav1pjc_Ptu5-151" value="" style="rounded=0;html=1;labelBackgroundColor=none;startArrow=none;startFill=0;startSize=5;endArrow=none;endFill=0;endSize=5;jettySize=auto;orthogonalLoop=1;strokeWidth=1;fontFamily=Verdana;fontSize=12;exitX=0.5;exitY=1;exitDx=0;exitDy=0;entryX=0.5;entryY=0;entryDx=0;entryDy=0;" edge="1" source="LJCdJQDtRav1pjc_Ptu5-148" target="LJCdJQDtRav1pjc_Ptu5-164" parent="1">
          <mxGeometry x="-0.3002" y="13" relative="1" as="geometry">
            <mxPoint as="offset" />
            <mxPoint x="2625" y="100" as="sourcePoint" />
            <mxPoint x="2555" y="120" as="targetPoint" />
          </mxGeometry>
        </mxCell>
        <mxCell id="LJCdJQDtRav1pjc_Ptu5-152" value="&lt;br&gt;" style="rounded=0;html=1;labelBackgroundColor=none;startArrow=none;startFill=0;startSize=5;endArrow=none;endFill=0;endSize=5;jettySize=auto;orthogonalLoop=1;strokeWidth=1;fontFamily=Verdana;fontSize=12;exitX=0.5;exitY=1;exitDx=0;exitDy=0;entryX=0.5;entryY=0;entryDx=0;entryDy=0;" edge="1" source="LJCdJQDtRav1pjc_Ptu5-148" target="LJCdJQDtRav1pjc_Ptu5-149" parent="1">
          <mxGeometry x="-0.359" y="-11" relative="1" as="geometry">
            <mxPoint as="offset" />
          </mxGeometry>
        </mxCell>
        <mxCell id="LJCdJQDtRav1pjc_Ptu5-164" value="" style="whiteSpace=wrap;html=1;rounded=1;shadow=1;labelBackgroundColor=none;strokeWidth=1;fontFamily=Verdana;fontSize=12;align=center;" vertex="1" parent="1">
          <mxGeometry x="2760" y="120" width="40" height="60" as="geometry" />
        </mxCell>
        <mxCell id="LJCdJQDtRav1pjc_Ptu5-212" value="" style="whiteSpace=wrap;html=1;rounded=1;shadow=1;labelBackgroundColor=none;strokeWidth=1;fontFamily=Verdana;fontSize=12;align=center;" vertex="1" parent="1">
          <mxGeometry x="2320" y="200" width="40" height="60" as="geometry" />
        </mxCell>
        <mxCell id="LJCdJQDtRav1pjc_Ptu5-213" value="" style="rounded=0;html=1;labelBackgroundColor=none;startArrow=none;startFill=0;startSize=5;endArrow=none;endFill=0;endSize=5;jettySize=auto;orthogonalLoop=1;strokeWidth=1;fontFamily=Verdana;fontSize=12;entryX=0.5;entryY=0;entryDx=0;entryDy=0;" edge="1" target="LJCdJQDtRav1pjc_Ptu5-215" parent="1">
          <mxGeometry x="-0.3002" y="13" relative="1" as="geometry">
            <mxPoint as="offset" />
            <mxPoint x="2420" y="180" as="sourcePoint" />
            <mxPoint x="2375" y="200" as="targetPoint" />
          </mxGeometry>
        </mxCell>
        <mxCell id="LJCdJQDtRav1pjc_Ptu5-214" value="&lt;br&gt;" style="rounded=0;html=1;labelBackgroundColor=none;startArrow=none;startFill=0;startSize=5;endArrow=none;endFill=0;endSize=5;jettySize=auto;orthogonalLoop=1;strokeWidth=1;fontFamily=Verdana;fontSize=12;entryX=0.5;entryY=0;entryDx=0;entryDy=0;" edge="1" target="LJCdJQDtRav1pjc_Ptu5-212" parent="1">
          <mxGeometry x="-0.359" y="-11" relative="1" as="geometry">
            <mxPoint as="offset" />
            <mxPoint x="2420" y="180" as="sourcePoint" />
          </mxGeometry>
        </mxCell>
        <mxCell id="LJCdJQDtRav1pjc_Ptu5-215" value="" style="whiteSpace=wrap;html=1;rounded=1;shadow=1;labelBackgroundColor=none;strokeWidth=1;fontFamily=Verdana;fontSize=12;align=center;" vertex="1" parent="1">
          <mxGeometry x="2480" y="200" width="40" height="60" as="geometry" />
        </mxCell>
        <mxCell id="LJCdJQDtRav1pjc_Ptu5-216" value="h" style="whiteSpace=wrap;html=1;rounded=1;shadow=1;labelBackgroundColor=none;strokeWidth=1;fontFamily=Verdana;fontSize=12;align=center;" vertex="1" parent="1">
          <mxGeometry x="2280" y="280" width="40" height="60" as="geometry" />
        </mxCell>
        <mxCell id="LJCdJQDtRav1pjc_Ptu5-217" value="" style="rounded=0;html=1;labelBackgroundColor=none;startArrow=none;startFill=0;startSize=5;endArrow=none;endFill=0;endSize=5;jettySize=auto;orthogonalLoop=1;strokeWidth=1;fontFamily=Verdana;fontSize=12;entryX=0.5;entryY=0;entryDx=0;entryDy=0;" edge="1" target="LJCdJQDtRav1pjc_Ptu5-219" parent="1">
          <mxGeometry x="-0.3002" y="13" relative="1" as="geometry">
            <mxPoint as="offset" />
            <mxPoint x="2340" y="260" as="sourcePoint" />
            <mxPoint x="2295" y="280" as="targetPoint" />
          </mxGeometry>
        </mxCell>
        <mxCell id="LJCdJQDtRav1pjc_Ptu5-218" value="&lt;br&gt;" style="rounded=0;html=1;labelBackgroundColor=none;startArrow=none;startFill=0;startSize=5;endArrow=none;endFill=0;endSize=5;jettySize=auto;orthogonalLoop=1;strokeWidth=1;fontFamily=Verdana;fontSize=12;entryX=0.5;entryY=0;entryDx=0;entryDy=0;" edge="1" target="LJCdJQDtRav1pjc_Ptu5-216" parent="1">
          <mxGeometry x="-0.359" y="-11" relative="1" as="geometry">
            <mxPoint as="offset" />
            <mxPoint x="2340" y="260" as="sourcePoint" />
          </mxGeometry>
        </mxCell>
        <mxCell id="LJCdJQDtRav1pjc_Ptu5-219" value="g" style="whiteSpace=wrap;html=1;rounded=1;shadow=1;labelBackgroundColor=none;strokeWidth=1;fontFamily=Verdana;fontSize=12;align=center;" vertex="1" parent="1">
          <mxGeometry x="2360" y="280" width="40" height="60" as="geometry" />
        </mxCell>
        <mxCell id="LJCdJQDtRav1pjc_Ptu5-222" value="f" style="whiteSpace=wrap;html=1;rounded=1;shadow=1;labelBackgroundColor=none;strokeWidth=1;fontFamily=Verdana;fontSize=12;align=center;" vertex="1" parent="1">
          <mxGeometry x="2440" y="280" width="40" height="60" as="geometry" />
        </mxCell>
        <mxCell id="LJCdJQDtRav1pjc_Ptu5-223" value="" style="rounded=0;html=1;labelBackgroundColor=none;startArrow=none;startFill=0;startSize=5;endArrow=none;endFill=0;endSize=5;jettySize=auto;orthogonalLoop=1;strokeWidth=1;fontFamily=Verdana;fontSize=12;entryX=0.5;entryY=0;entryDx=0;entryDy=0;" edge="1" target="LJCdJQDtRav1pjc_Ptu5-225" parent="1">
          <mxGeometry x="-0.3002" y="13" relative="1" as="geometry">
            <mxPoint as="offset" />
            <mxPoint x="2500" y="260" as="sourcePoint" />
            <mxPoint x="2455" y="280" as="targetPoint" />
          </mxGeometry>
        </mxCell>
        <mxCell id="LJCdJQDtRav1pjc_Ptu5-224" value="&lt;br&gt;" style="rounded=0;html=1;labelBackgroundColor=none;startArrow=none;startFill=0;startSize=5;endArrow=none;endFill=0;endSize=5;jettySize=auto;orthogonalLoop=1;strokeWidth=1;fontFamily=Verdana;fontSize=12;entryX=0.5;entryY=0;entryDx=0;entryDy=0;" edge="1" target="LJCdJQDtRav1pjc_Ptu5-222" parent="1">
          <mxGeometry x="-0.359" y="-11" relative="1" as="geometry">
            <mxPoint as="offset" />
            <mxPoint x="2500" y="260" as="sourcePoint" />
          </mxGeometry>
        </mxCell>
        <mxCell id="LJCdJQDtRav1pjc_Ptu5-225" value="e" style="whiteSpace=wrap;html=1;rounded=1;shadow=1;labelBackgroundColor=none;strokeWidth=1;fontFamily=Verdana;fontSize=12;align=center;" vertex="1" parent="1">
          <mxGeometry x="2520" y="280" width="40" height="60" as="geometry" />
        </mxCell>
        <mxCell id="LJCdJQDtRav1pjc_Ptu5-226" value="" style="whiteSpace=wrap;html=1;rounded=1;shadow=1;labelBackgroundColor=none;strokeWidth=1;fontFamily=Verdana;fontSize=12;align=center;" vertex="1" parent="1">
          <mxGeometry x="2680" y="200" width="40" height="60" as="geometry" />
        </mxCell>
        <mxCell id="LJCdJQDtRav1pjc_Ptu5-227" value="" style="rounded=0;html=1;labelBackgroundColor=none;startArrow=none;startFill=0;startSize=5;endArrow=none;endFill=0;endSize=5;jettySize=auto;orthogonalLoop=1;strokeWidth=1;fontFamily=Verdana;fontSize=12;entryX=0.5;entryY=0;entryDx=0;entryDy=0;" edge="1" target="LJCdJQDtRav1pjc_Ptu5-229" parent="1">
          <mxGeometry x="-0.3002" y="13" relative="1" as="geometry">
            <mxPoint as="offset" />
            <mxPoint x="2780" y="180" as="sourcePoint" />
            <mxPoint x="2735" y="200" as="targetPoint" />
          </mxGeometry>
        </mxCell>
        <mxCell id="LJCdJQDtRav1pjc_Ptu5-228" value="&lt;br&gt;" style="rounded=0;html=1;labelBackgroundColor=none;startArrow=none;startFill=0;startSize=5;endArrow=none;endFill=0;endSize=5;jettySize=auto;orthogonalLoop=1;strokeWidth=1;fontFamily=Verdana;fontSize=12;entryX=0.5;entryY=0;entryDx=0;entryDy=0;" edge="1" target="LJCdJQDtRav1pjc_Ptu5-226" parent="1">
          <mxGeometry x="-0.359" y="-11" relative="1" as="geometry">
            <mxPoint as="offset" />
            <mxPoint x="2780" y="180" as="sourcePoint" />
          </mxGeometry>
        </mxCell>
        <mxCell id="LJCdJQDtRav1pjc_Ptu5-229" value="" style="whiteSpace=wrap;html=1;rounded=1;shadow=1;labelBackgroundColor=none;strokeWidth=1;fontFamily=Verdana;fontSize=12;align=center;" vertex="1" parent="1">
          <mxGeometry x="2840" y="200" width="40" height="60" as="geometry" />
        </mxCell>
        <mxCell id="LJCdJQDtRav1pjc_Ptu5-230" value="d" style="whiteSpace=wrap;html=1;rounded=1;shadow=1;labelBackgroundColor=none;strokeWidth=1;fontFamily=Verdana;fontSize=12;align=center;" vertex="1" parent="1">
          <mxGeometry x="2640" y="280" width="40" height="60" as="geometry" />
        </mxCell>
        <mxCell id="LJCdJQDtRav1pjc_Ptu5-231" value="" style="rounded=0;html=1;labelBackgroundColor=none;startArrow=none;startFill=0;startSize=5;endArrow=none;endFill=0;endSize=5;jettySize=auto;orthogonalLoop=1;strokeWidth=1;fontFamily=Verdana;fontSize=12;entryX=0.5;entryY=0;entryDx=0;entryDy=0;" edge="1" target="LJCdJQDtRav1pjc_Ptu5-233" parent="1">
          <mxGeometry x="-0.3002" y="13" relative="1" as="geometry">
            <mxPoint as="offset" />
            <mxPoint x="2700" y="260" as="sourcePoint" />
            <mxPoint x="2655" y="280" as="targetPoint" />
          </mxGeometry>
        </mxCell>
        <mxCell id="LJCdJQDtRav1pjc_Ptu5-232" value="&lt;br&gt;" style="rounded=0;html=1;labelBackgroundColor=none;startArrow=none;startFill=0;startSize=5;endArrow=none;endFill=0;endSize=5;jettySize=auto;orthogonalLoop=1;strokeWidth=1;fontFamily=Verdana;fontSize=12;entryX=0.5;entryY=0;entryDx=0;entryDy=0;" edge="1" target="LJCdJQDtRav1pjc_Ptu5-230" parent="1">
          <mxGeometry x="-0.359" y="-11" relative="1" as="geometry">
            <mxPoint as="offset" />
            <mxPoint x="2700" y="260" as="sourcePoint" />
          </mxGeometry>
        </mxCell>
        <mxCell id="LJCdJQDtRav1pjc_Ptu5-233" value="c" style="whiteSpace=wrap;html=1;rounded=1;shadow=1;labelBackgroundColor=none;strokeWidth=1;fontFamily=Verdana;fontSize=12;align=center;" vertex="1" parent="1">
          <mxGeometry x="2720" y="280" width="40" height="60" as="geometry" />
        </mxCell>
        <mxCell id="LJCdJQDtRav1pjc_Ptu5-234" value="b" style="whiteSpace=wrap;html=1;rounded=1;shadow=1;labelBackgroundColor=none;strokeWidth=1;fontFamily=Verdana;fontSize=12;align=center;" vertex="1" parent="1">
          <mxGeometry x="2800" y="280" width="40" height="60" as="geometry" />
        </mxCell>
        <mxCell id="LJCdJQDtRav1pjc_Ptu5-235" value="" style="rounded=0;html=1;labelBackgroundColor=none;startArrow=none;startFill=0;startSize=5;endArrow=none;endFill=0;endSize=5;jettySize=auto;orthogonalLoop=1;strokeWidth=1;fontFamily=Verdana;fontSize=12;entryX=0.5;entryY=0;entryDx=0;entryDy=0;" edge="1" target="LJCdJQDtRav1pjc_Ptu5-237" parent="1">
          <mxGeometry x="-0.3002" y="13" relative="1" as="geometry">
            <mxPoint as="offset" />
            <mxPoint x="2860" y="260" as="sourcePoint" />
            <mxPoint x="2815" y="280" as="targetPoint" />
          </mxGeometry>
        </mxCell>
        <mxCell id="LJCdJQDtRav1pjc_Ptu5-236" value="&lt;br&gt;" style="rounded=0;html=1;labelBackgroundColor=none;startArrow=none;startFill=0;startSize=5;endArrow=none;endFill=0;endSize=5;jettySize=auto;orthogonalLoop=1;strokeWidth=1;fontFamily=Verdana;fontSize=12;entryX=0.5;entryY=0;entryDx=0;entryDy=0;" edge="1" target="LJCdJQDtRav1pjc_Ptu5-234" parent="1">
          <mxGeometry x="-0.359" y="-11" relative="1" as="geometry">
            <mxPoint as="offset" />
            <mxPoint x="2860" y="260" as="sourcePoint" />
          </mxGeometry>
        </mxCell>
        <mxCell id="LJCdJQDtRav1pjc_Ptu5-237" value="a" style="whiteSpace=wrap;html=1;rounded=1;shadow=1;labelBackgroundColor=none;strokeWidth=1;fontFamily=Verdana;fontSize=12;align=center;" vertex="1" parent="1">
          <mxGeometry x="2880" y="280" width="40" height="60" as="geometry" />
        </mxCell>
      </root>
    </mxGraphModel>
  </diagram>
</mxfile>
